# xmcd
#
# Track frame offsets: 
#        150
#        21235
#        36747
#        51739
#        67822
#        84420
#        109730
#        127707
#        144047
#        157952
#        172515
#
# Disc length: 2502 seconds
#
# Revision: 0
# Processed by: cddbd v1.5.2PL0 Copyright (c) Steve Scherf et al.
# Submitted via: ExactAudioCopy v0.95a5
#
DISCID=8309c40b
DTITLE=Tom Malmquist - Fish In A Tear
DYEAR=2007
DGENRE=
TTITLE0=Suppose Hope Dies, But Man Doesn't
TTITLE1=Wood
TTITLE2=Time To Rethink
TTITLE3=Sweet Darling
TTITLE4=The Tyranny Of Heaviness
TTITLE5=I'm Free Like A Fish In A Tear
TTITLE6=The Mighty One
TTITLE7=Heavens Once Sang
TTITLE8=Two In The Morning
TTITLE9=Father And Son Dialog
TTITLE10=Blue Eyes (Part 2)
EXTD=
EXTT0=
EXTT1=
EXTT2=
EXTT3=
EXTT4=
EXTT5=
EXTT6=
EXTT7=
EXTT8=
EXTT9=
EXTT10=
PLAYORDER=
